<svg width="94" height="106" viewBox="0 0 94 106" fill="none" xmlns="http://www.w3.org/2000/svg">
<path d="M92.9163 93.8245C92.9163 95.5121 91.5413 96.8872 89.8537 96.8872C88.1661 96.8872 86.7911 95.5121 86.7911 93.8245C86.7911 92.137 88.1661 90.7619 89.8537 90.7619C91.5413 90.7619 92.9163 92.137 92.9163 93.8245Z" stroke="#FAD12E" stroke-width="1.904" stroke-miterlimit="10"/>
<path d="M90.8787 95.2121H90.4162L89.9537 94.0745H89.2537V95.2121H88.8286V92.437H89.9412C90.2162 92.437 90.4287 92.4995 90.5912 92.637C90.7537 92.7745 90.8287 92.9745 90.8287 93.237C90.8287 93.4245 90.7912 93.5745 90.7037 93.6995C90.6162 93.8245 90.5037 93.9245 90.3662 93.987L90.8787 95.2121ZM89.2537 93.687H89.8787C90.0412 93.687 90.1662 93.6495 90.2537 93.5745C90.3412 93.4995 90.3912 93.387 90.3912 93.2495C90.3912 93.112 90.3412 92.9995 90.2537 92.9245C90.1662 92.8495 90.0412 92.812 89.8787 92.812H89.2537V93.687Z" fill="#FAD12E"/>
<path d="M4.05017 96.0496C2.76261 95.3121 1.76257 94.2995 1.05004 92.9995C0.350014 91.6869 0 90.2118 0 88.5618C0 87.0367 0.312513 85.5991 0.937538 84.2491C1.56256 82.9115 2.5126 81.824 3.77515 80.9865C5.03771 80.1489 6.58777 79.7364 8.41285 79.7364C9.92541 79.7364 11.313 80.0489 12.588 80.6739C13.8631 81.299 14.8881 82.2615 15.6631 83.5616C16.4382 84.8616 16.8257 86.4742 16.8257 88.4118V89.2743H4.17517C4.23767 89.9743 4.43768 90.6244 4.8002 91.2369C5.20021 92.0119 5.72523 92.6119 6.40026 93.037C7.06279 93.462 7.82532 93.6745 8.67536 93.6745C9.58789 93.6745 10.3754 93.437 11.0255 92.9744C11.6755 92.5119 12.1505 91.9119 12.4255 91.1744H16.5382C16.0007 92.9495 15.0631 94.3745 13.7006 95.4871C12.3505 96.5871 10.6254 97.1371 8.51285 97.1371C6.83778 97.1496 5.35022 96.7746 4.05017 96.0496ZM12.7005 86.2617C12.6255 85.6241 12.413 85.1116 12.0755 84.7116C11.7005 84.1366 11.2005 83.6991 10.5879 83.3865C9.97541 83.074 9.28788 82.924 8.52535 82.924C7.77532 82.924 7.08779 83.074 6.48777 83.3741C5.87524 83.6741 5.38772 84.1241 5.01271 84.7116C4.65019 85.1491 4.43768 85.6616 4.36268 86.2617H12.7005Z" fill="#FAD12E"/>
<path d="M25.401 97.1496C24.0885 97.1496 23.0884 96.8496 22.4134 96.2371C21.7384 95.6371 21.4009 94.6745 21.4009 93.362V73.6362H25.5635V92.1244C25.5635 92.6994 25.676 93.0995 25.8886 93.337C26.1011 93.5745 26.4636 93.687 26.9886 93.687H28.1011V97.1371H25.401V97.1496Z" fill="#FAD12E"/>
<path d="M39.4766 97.1496H36.1765L29.8012 79.8614H34.2389L37.814 90.7743L41.4517 79.8614H45.8894L39.4766 97.1496Z" fill="#FAD12E"/>
<path d="M48.9645 77.2988C48.477 76.8613 48.227 76.2988 48.227 75.5737C48.227 74.8987 48.477 74.3362 48.9645 73.8737C49.452 73.4237 50.0646 73.1986 50.7771 73.1986C51.4771 73.1986 52.0771 73.4237 52.5772 73.8737C53.0772 74.3237 53.3272 74.8862 53.3272 75.5737C53.3272 76.2738 53.0772 76.8363 52.5897 77.2863C52.1022 77.7238 51.4896 77.9488 50.7771 77.9488C50.0646 77.9488 49.4645 77.7363 48.9645 77.2988ZM52.8522 97.1496H48.6895V79.8614H52.8522V97.1496Z" fill="#FAD12E"/>
<path d="M57.1899 97.1496V79.8614H61.3525V81.924C61.9901 81.0365 62.7026 80.4114 63.4901 80.0489C64.2777 79.6739 65.2152 79.4989 66.2777 79.4989H66.7653V83.4991H65.8152C64.5027 83.4991 63.4776 83.8491 62.7401 84.5491C62.2651 85.0241 61.9151 85.6242 61.69 86.3492C61.465 87.0742 61.3525 88.0118 61.3525 89.1368V97.1496H57.1899Z" fill="#FAD12E"/>
<path d="M70.5029 95.812C69.4528 94.9245 68.9278 93.6745 68.9278 92.0744C68.9278 90.3493 69.5904 89.0368 70.9029 88.1367C71.8529 87.4742 73.1905 86.9867 74.9406 86.6617L80.0908 85.7116C80.0533 84.6491 79.7783 83.8365 79.2532 83.274C78.7407 82.724 77.9657 82.4365 76.9407 82.4365C76.1406 82.4365 75.4406 82.674 74.8281 83.149C74.2155 83.624 73.8405 84.2616 73.703 85.0616H69.5778C69.8654 83.149 70.7029 81.699 72.103 80.6864C73.503 79.6864 75.1281 79.1739 76.9657 79.1739C78.0157 79.1739 78.9907 79.3239 79.8908 79.6239C80.7908 79.9239 81.5658 80.3614 82.2034 80.9364C82.8409 81.4865 83.3034 82.1365 83.5909 82.874C83.8784 83.6115 84.0534 84.3491 84.1284 85.0866C84.2034 85.8241 84.241 86.7367 84.241 87.8242V96.8246H80.0783V94.487C79.6533 95.2495 79.1282 95.8245 78.5032 96.2121C77.5407 96.8496 76.2281 97.1621 74.5906 97.1621C72.9155 97.1496 71.5529 96.6996 70.5029 95.812ZM77.8407 93.3869C78.7032 92.9494 79.3032 92.3869 79.6283 91.6619C79.9533 90.9368 80.1408 89.9618 80.1783 88.7368L76.0531 89.5743C74.9406 89.7743 74.1405 90.1118 73.653 90.5618C73.278 90.9368 73.103 91.3869 73.103 91.9119C73.103 92.5494 73.328 93.0369 73.7905 93.3744C74.253 93.712 74.8656 93.887 75.6281 93.887C76.4406 93.8745 77.1782 93.712 77.8407 93.3869Z" fill="#FAD12E"/>
<path d="M9.13789 105.887C8.95038 105.812 8.78788 105.712 8.66287 105.55C8.53787 105.4 8.45036 105.2 8.42536 104.962H8.93788C8.98788 105.175 9.07539 105.325 9.22539 105.412C9.3754 105.5 9.53791 105.55 9.73792 105.55C9.92542 105.55 10.0629 105.512 10.1754 105.437C10.2879 105.362 10.3379 105.25 10.3379 105.087C10.3379 104.975 10.3004 104.887 10.2379 104.825C10.1754 104.762 10.0879 104.712 9.98793 104.675C9.88792 104.637 9.75042 104.6 9.56291 104.562C9.3379 104.512 9.16289 104.462 9.02539 104.412C8.88788 104.362 8.76288 104.275 8.67537 104.162C8.58787 104.05 8.52537 103.9 8.52537 103.7C8.52537 103.512 8.57537 103.362 8.66287 103.225C8.75038 103.087 8.87538 102.987 9.03789 102.925C9.20039 102.862 9.3754 102.825 9.57541 102.825C9.87542 102.825 10.1379 102.9 10.3629 103.062C10.5879 103.225 10.713 103.45 10.763 103.762H10.2504C10.2129 103.6 10.1254 103.475 10.0004 103.387C9.87542 103.3 9.72541 103.262 9.55041 103.262C9.3879 103.262 9.2504 103.3 9.16289 103.362C9.06289 103.437 9.01289 103.525 9.01289 103.65C9.01289 103.75 9.03789 103.825 9.11289 103.887C9.17539 103.95 9.2504 103.987 9.3504 104.025C9.4504 104.05 9.57541 104.087 9.73792 104.125C9.97543 104.175 10.1629 104.225 10.3004 104.287C10.4504 104.337 10.5629 104.425 10.6755 104.55C10.7755 104.675 10.8255 104.837 10.8255 105.05C10.8255 105.337 10.7255 105.562 10.5254 105.725C10.3254 105.887 10.0504 105.975 9.70041 105.975C9.52541 105.987 9.3254 105.962 9.13789 105.887Z" fill="#FAD12E"/>
<path d="M14.5381 105.938H12.5255V102.887H14.5381V103.337H13.0255V104.187H14.3756V104.637H13.0255V105.488H14.5381V105.938Z" fill="#FAD12E"/>
<path d="M18.4883 105.938H17.9382L17.4382 104.687H16.7132V105.938H16.2007V102.887H17.4632C17.7632 102.887 18.0007 102.962 18.1632 103.112C18.3383 103.262 18.4258 103.487 18.4258 103.787C18.4258 103.987 18.3883 104.162 18.3008 104.3C18.2132 104.437 18.0882 104.55 17.9257 104.612L18.4883 105.938ZM16.7007 104.25H17.3882C17.5632 104.25 17.6882 104.212 17.7882 104.137C17.8757 104.062 17.9257 103.95 17.9257 103.8C17.9257 103.65 17.8757 103.537 17.7882 103.462C17.7007 103.387 17.5632 103.35 17.3882 103.35H16.7007V104.25Z" fill="#FAD12E"/>
<path d="M21.5009 105.938H20.9384L19.8508 102.887H20.3759L21.2259 105.387L22.0634 102.887H22.5884L21.5009 105.938Z" fill="#FAD12E"/>
<path d="M24.6135 102.887H24.101V105.938H24.6135V102.887Z" fill="#FAD12E"/>
<path d="M26.9261 105.775C26.7136 105.637 26.5511 105.437 26.4386 105.2C26.3261 104.962 26.2761 104.7 26.2761 104.412C26.2761 104.125 26.3261 103.862 26.4386 103.625C26.5511 103.387 26.7011 103.2 26.9261 103.05C27.1386 102.912 27.4136 102.837 27.7261 102.837C28.0887 102.837 28.3762 102.925 28.6012 103.1C28.8262 103.275 28.9637 103.512 29.0012 103.8H28.4512C28.4137 103.637 28.3387 103.512 28.2137 103.425C28.0887 103.337 27.9261 103.287 27.7261 103.287C27.4386 103.287 27.2011 103.387 27.0511 103.587C26.9011 103.787 26.8136 104.062 26.8136 104.4C26.8136 104.737 26.8886 105.012 27.0511 105.212C27.2136 105.425 27.4386 105.525 27.7261 105.525C27.9261 105.525 28.0887 105.475 28.2137 105.375C28.3387 105.275 28.4262 105.137 28.4512 104.95H29.0012C28.9512 105.262 28.8137 105.512 28.6012 105.7C28.3762 105.887 28.0887 105.975 27.7261 105.975C27.4136 105.987 27.1386 105.925 26.9261 105.775Z" fill="#FAD12E"/>
<path d="M32.6514 105.938H30.6263V102.887H32.6514V103.337H31.1388V104.187H32.4763V104.637H31.1388V105.488H32.6514V105.938Z" fill="#FAD12E"/>
<path d="M37.0015 105.9C36.8515 105.837 36.7265 105.75 36.639 105.637C36.5515 105.525 36.5015 105.375 36.5015 105.212C36.5015 105.012 36.564 104.85 36.6765 104.712C36.789 104.575 36.964 104.437 37.2015 104.3C37.0765 104.162 36.9765 104.037 36.9265 103.937C36.8765 103.837 36.839 103.712 36.839 103.587C36.839 103.437 36.8765 103.3 36.9515 103.187C37.0265 103.075 37.1265 102.987 37.2515 102.925C37.3765 102.862 37.5265 102.837 37.689 102.837C37.9265 102.837 38.114 102.9 38.2641 103.025C38.4141 103.15 38.4891 103.325 38.4891 103.537C38.4891 103.862 38.2891 104.137 37.8765 104.375L38.4266 105.05C38.4891 104.95 38.5266 104.85 38.5516 104.75C38.5766 104.65 38.6016 104.537 38.6016 104.425H39.0516C39.0141 104.812 38.9016 105.137 38.7016 105.412L39.1266 105.95H38.5391L38.3516 105.7C38.2641 105.8 38.139 105.875 37.989 105.925C37.839 105.975 37.6765 106 37.514 106C37.3265 105.988 37.1515 105.963 37.0015 105.9ZM37.839 105.525C37.939 105.487 38.039 105.437 38.114 105.375L37.489 104.587C37.3265 104.687 37.189 104.775 37.114 104.862C37.0265 104.95 36.989 105.05 36.989 105.175C36.989 105.3 37.039 105.4 37.139 105.475C37.239 105.55 37.3765 105.575 37.5265 105.575C37.6265 105.587 37.7265 105.562 37.839 105.525ZM37.914 103.825C37.989 103.75 38.0265 103.65 38.0265 103.537C38.0265 103.45 37.989 103.375 37.9265 103.312C37.864 103.25 37.7765 103.225 37.6765 103.225C37.5765 103.225 37.489 103.262 37.414 103.325C37.339 103.387 37.3015 103.475 37.3015 103.587C37.3015 103.675 37.3265 103.75 37.364 103.812C37.4015 103.887 37.4765 103.975 37.564 104.075C37.7265 103.987 37.839 103.912 37.914 103.825Z" fill="#FAD12E"/>
<path d="M43.6143 105.887C43.4268 105.812 43.2643 105.712 43.1393 105.55C43.0143 105.4 42.9268 105.2 42.9018 104.962H43.4143C43.4643 105.175 43.5518 105.325 43.7018 105.412C43.8518 105.5 44.0143 105.55 44.2143 105.55C44.4018 105.55 44.5393 105.512 44.6518 105.437C44.7643 105.362 44.8143 105.25 44.8143 105.087C44.8143 104.975 44.7768 104.887 44.7143 104.825C44.6518 104.762 44.5643 104.712 44.4643 104.675C44.3643 104.637 44.2268 104.6 44.0393 104.562C43.8143 104.512 43.6393 104.462 43.5018 104.412C43.3643 104.362 43.2393 104.275 43.1518 104.162C43.0643 104.05 43.0018 103.9 43.0018 103.7C43.0018 103.512 43.0518 103.362 43.1393 103.225C43.2268 103.087 43.3518 102.987 43.5143 102.925C43.6768 102.862 43.8518 102.825 44.0518 102.825C44.3518 102.825 44.6143 102.9 44.8393 103.062C45.0643 103.225 45.1893 103.45 45.2393 103.762H44.7268C44.6893 103.6 44.6018 103.475 44.4768 103.387C44.3518 103.3 44.2018 103.262 44.0268 103.262C43.8643 103.262 43.7268 103.3 43.6393 103.362C43.5393 103.437 43.4893 103.525 43.4893 103.65C43.4893 103.75 43.5143 103.825 43.5893 103.887C43.6518 103.95 43.7268 103.987 43.8268 104.025C43.9268 104.05 44.0518 104.087 44.2143 104.125C44.4518 104.175 44.6393 104.225 44.7768 104.287C44.9268 104.337 45.0393 104.425 45.1518 104.55C45.2519 104.675 45.3019 104.837 45.3019 105.05C45.3019 105.337 45.2018 105.562 45.0018 105.725C44.8018 105.887 44.5268 105.975 44.1768 105.975C44.0018 105.987 43.8018 105.962 43.6143 105.887Z" fill="#FAD12E"/>
<path d="M47.5394 105.775C47.3269 105.637 47.1519 105.437 47.0519 105.2C46.9394 104.962 46.8894 104.7 46.8894 104.4C46.8894 104.112 46.9394 103.85 47.0519 103.612C47.1644 103.375 47.3269 103.187 47.5394 103.05C47.752 102.912 48.027 102.837 48.352 102.837C48.6645 102.837 48.9395 102.912 49.152 103.05C49.377 103.187 49.5395 103.387 49.6395 103.625C49.752 103.862 49.802 104.125 49.802 104.412C49.802 104.7 49.752 104.962 49.6395 105.212C49.527 105.45 49.3645 105.637 49.152 105.787C48.927 105.925 48.6645 106 48.352 106C48.027 105.988 47.752 105.925 47.5394 105.775ZM49.0395 105.225C49.202 105.025 49.2895 104.75 49.2895 104.412C49.2895 104.075 49.202 103.8 49.0395 103.6C48.877 103.4 48.6395 103.287 48.352 103.287C48.152 103.287 47.9895 103.337 47.852 103.425C47.7145 103.525 47.6019 103.65 47.5269 103.825C47.4519 104 47.4144 104.187 47.4144 104.412C47.4144 104.637 47.4519 104.825 47.5269 105C47.6019 105.175 47.702 105.3 47.852 105.4C47.9895 105.5 48.1645 105.537 48.352 105.537C48.6395 105.537 48.877 105.437 49.0395 105.225Z" fill="#FAD12E"/>
<path d="M53.2897 105.938H51.4646V102.887H51.9771V105.488H53.2897V105.938Z" fill="#FAD12E"/>
<path d="M55.0147 105.688C54.8147 105.488 54.7147 105.212 54.7147 104.85V102.887H55.2272V104.85C55.2272 105.312 55.4522 105.538 55.9148 105.538C56.3773 105.538 56.6023 105.312 56.6023 104.85V102.887H57.1148V104.85C57.1148 105.212 57.0148 105.488 56.8148 105.688C56.6148 105.888 56.3148 105.988 55.9148 105.988C55.5023 105.988 55.2022 105.888 55.0147 105.688Z" fill="#FAD12E"/>
<path d="M60.0899 105.938H59.5774V103.337H58.6149V102.887H61.0525V103.337H60.0899V105.938Z" fill="#FAD12E"/>
<path d="M63.0901 102.887H62.5775V105.938H63.0901V102.887Z" fill="#FAD12E"/>
<path d="M65.4027 105.775C65.1902 105.637 65.0152 105.437 64.9152 105.2C64.8027 104.962 64.7527 104.7 64.7527 104.4C64.7527 104.112 64.8027 103.85 64.9152 103.612C65.0277 103.375 65.1902 103.187 65.4027 103.05C65.6152 102.912 65.8902 102.837 66.2152 102.837C66.5277 102.837 66.8027 102.912 67.0152 103.05C67.2403 103.187 67.4028 103.387 67.5028 103.625C67.6153 103.862 67.6653 104.125 67.6653 104.412C67.6653 104.7 67.6153 104.962 67.5028 105.212C67.3903 105.45 67.2278 105.637 67.0152 105.787C66.7902 105.925 66.5277 106 66.2152 106C65.8902 105.988 65.6277 105.925 65.4027 105.775ZM66.9027 105.225C67.0653 105.025 67.1528 104.75 67.1528 104.412C67.1528 104.075 67.0653 103.8 66.9027 103.6C66.7402 103.4 66.5027 103.287 66.2152 103.287C66.0152 103.287 65.8527 103.337 65.7152 103.425C65.5777 103.525 65.4652 103.65 65.3902 103.825C65.3152 104 65.2777 104.187 65.2777 104.412C65.2777 104.637 65.3152 104.825 65.3902 105C65.4652 105.175 65.5652 105.3 65.7152 105.4C65.8527 105.5 66.0277 105.537 66.2152 105.537C66.5152 105.537 66.7402 105.437 66.9027 105.225Z" fill="#FAD12E"/>
<path d="M69.8404 105.938H69.3403V102.887H69.9529L71.2404 105.237V102.887H71.7404V105.938H71.1279L69.8404 103.587V105.938Z" fill="#FAD12E"/>
<path d="M74.0905 105.887C73.903 105.812 73.7405 105.712 73.6155 105.55C73.4905 105.387 73.403 105.2 73.378 104.962H73.8905C73.9405 105.175 74.028 105.325 74.178 105.412C74.328 105.5 74.4905 105.55 74.6905 105.55C74.8781 105.55 75.0156 105.512 75.1281 105.437C75.2406 105.362 75.2906 105.25 75.2906 105.087C75.2906 104.975 75.2531 104.887 75.1906 104.825C75.1281 104.762 75.0406 104.712 74.9406 104.675C74.8406 104.637 74.703 104.6 74.5155 104.562C74.2905 104.512 74.1155 104.462 73.978 104.412C73.8405 104.362 73.7155 104.275 73.628 104.162C73.528 104.05 73.478 103.9 73.478 103.7C73.478 103.512 73.528 103.362 73.6155 103.225C73.703 103.087 73.828 102.987 73.9905 102.925C74.153 102.862 74.328 102.825 74.528 102.825C74.8281 102.825 75.0906 102.9 75.3156 103.062C75.5406 103.225 75.6656 103.45 75.7156 103.762H75.2031C75.1656 103.6 75.0781 103.475 74.9531 103.387C74.828 103.3 74.678 103.262 74.503 103.262C74.3405 103.262 74.203 103.3 74.1155 103.362C74.0155 103.437 73.9655 103.525 73.9655 103.65C73.9655 103.75 73.9905 103.825 74.0655 103.887C74.128 103.95 74.203 103.987 74.303 104.025C74.403 104.05 74.528 104.087 74.6905 104.125C74.9281 104.175 75.1156 104.225 75.2531 104.287C75.4031 104.337 75.5156 104.425 75.6281 104.55C75.7281 104.675 75.7781 104.837 75.7781 105.05C75.7781 105.337 75.6781 105.562 75.4781 105.725C75.2781 105.887 75.0031 105.975 74.653 105.975C74.478 105.987 74.278 105.962 74.0905 105.887Z" fill="#FAD12E"/>
<path d="M36.5265 0.208112C36.0765 0.008104 35.5889 -0.0418981 35.1389 0.033105C34.3889 0.170611 33.7139 0.670631 33.4014 1.43316L6.56276 65.9733L6.43775 66.5609L37.6515 3.35824C38.2266 2.18319 37.7265 0.758135 36.5265 0.208112ZM35.1264 4.7333L31.3013 13.1336C31.1513 13.4462 30.8013 13.5837 30.4887 13.4462C30.1762 13.2962 30.0512 12.9336 30.1887 12.6211L34.0139 4.22078C34.1014 4.03327 34.2764 3.90827 34.4639 3.87076C34.5889 3.84576 34.7139 3.85826 34.8264 3.90827C35.1389 4.05827 35.2764 4.42079 35.1264 4.7333Z" fill="#FAD12E"/>
<path d="M37.814 55.3229C34.6389 53.5228 32.1888 51.0227 30.4637 47.8226C28.7262 44.6349 27.8636 41.0098 27.8636 36.9596C27.8636 33.2095 28.6262 29.6843 30.1637 26.3842C31.7013 23.0965 34.0139 20.4214 37.114 18.3713C40.2141 16.3213 44.0018 15.2962 48.4895 15.2962C52.1896 15.2962 55.6148 16.0587 58.7274 17.5963C61.8525 19.1339 64.3651 21.4965 66.2652 24.6966C68.1653 27.8967 69.1153 31.8594 69.1153 36.5846V38.7097H38.1016C38.2516 40.4223 38.7641 42.0223 39.6391 43.5349C40.6142 45.435 41.9142 46.91 43.5518 47.9601C45.1894 49.0101 47.0519 49.5351 49.152 49.5351C51.3896 49.5351 53.3272 48.9601 54.9272 47.8101C56.5398 46.66 57.6774 45.1849 58.3649 43.3849H68.4653C67.1528 47.7226 64.8277 51.2477 61.515 53.9603C58.2024 56.6729 53.9522 58.023 48.7895 58.023C44.6393 58.023 40.9767 57.1229 37.814 55.3229ZM59.0274 31.3219C58.8274 29.7593 58.3149 28.4968 57.4899 27.5217C56.5648 26.1092 55.3398 25.0216 53.8272 24.2716C52.3146 23.5216 50.6271 23.134 48.777 23.134C46.9269 23.134 45.2519 23.4965 43.7643 24.2341C42.2767 24.9716 41.0642 26.0592 40.1391 27.5217C39.2641 28.5968 38.7266 29.8593 38.5266 31.3219H59.0274Z" fill="#FAD12E"/>
<path d="M19.7633 25.0842C22.4759 17.5713 28.5387 10.8211 36.2015 7.88344C37.3516 7.42092 38.7141 6.9709 39.9142 6.67089L40.5392 6.50838C40.8517 6.43338 41.5017 6.30838 41.8142 6.24587C42.2268 6.14587 43.3018 6.00836 43.7393 5.93336C44.1018 5.87086 44.6644 5.84586 45.0394 5.80836C49.352 5.43334 53.7772 5.99586 57.8649 7.42092C68.5903 11.1586 76.5657 20.7465 78.2657 31.9844C80.7158 47.7476 70.5654 62.9982 55.0648 66.7859C51.2771 67.7234 47.302 67.9234 43.4268 67.4109C41.2767 67.1234 39.1516 66.5859 37.114 65.8858C33.4889 64.4983 30.1638 62.3107 27.3511 59.6356C25.5011 57.8605 23.8635 55.8604 22.5384 53.6728C22.0884 52.9603 21.6884 52.2103 21.3009 51.4477C24.426 56.4354 28.9262 60.4606 34.2389 62.9357C38.9266 65.1108 44.0143 66.3234 49.1895 66.0108C49.7896 65.9608 50.4396 65.9358 51.0271 65.8483C51.3896 65.7983 51.8897 65.7483 52.2522 65.6858C53.1022 65.5483 54.1397 65.3233 54.9648 65.1233C55.1398 65.0733 55.6648 64.9233 55.8523 64.8733C68.9278 61.0981 77.7657 48.5726 76.9407 34.9971C76.5782 28.4218 73.9156 22.009 69.5029 17.1088C54.8898 0.908152 29.0762 5.80836 19.7633 25.0842Z" fill="#FAD12E"/>
</svg>
