<svg width="121" height="136" viewBox="0 0 121 136" fill="none" xmlns="http://www.w3.org/2000/svg">
<path d="M119.213 120.379C119.213 122.544 117.449 124.308 115.284 124.308C113.119 124.308 111.354 122.544 111.354 120.379C111.354 118.213 113.119 116.449 115.284 116.449C117.449 116.449 119.213 118.213 119.213 120.379Z" stroke="#FAD12E" stroke-width="1.904" stroke-miterlimit="10"/>
<path d="M116.6 122.159H116.007L115.413 120.7H114.515V122.159H113.97V118.599H115.397C115.75 118.599 116.023 118.679 116.231 118.855C116.44 119.032 116.536 119.288 116.536 119.625C116.536 119.866 116.488 120.058 116.375 120.219C116.263 120.379 116.119 120.507 115.942 120.587L116.6 122.159ZM114.515 120.202H115.317C115.525 120.202 115.686 120.154 115.798 120.058C115.91 119.962 115.975 119.818 115.975 119.641C115.975 119.465 115.91 119.32 115.798 119.224C115.686 119.128 115.525 119.08 115.317 119.08H114.515V120.202Z" fill="#FAD12E"/>
<path d="M5.19645 123.233C3.54449 122.287 2.26142 120.987 1.34723 119.319C0.449075 117.635 0 115.743 0 113.626C0 111.669 0.40096 109.825 1.20288 108.093C2.0048 106.376 3.22372 104.981 4.8436 103.907C6.46348 102.832 8.45224 102.303 10.7939 102.303C12.7345 102.303 14.5148 102.704 16.1507 103.506C17.7866 104.308 19.1017 105.542 20.0961 107.21C21.0905 108.878 21.5877 110.947 21.5877 113.433V114.54H5.35683C5.43702 115.438 5.69364 116.272 6.15875 117.058C6.67198 118.052 7.34559 118.822 8.21167 119.368C9.0617 119.913 10.04 120.186 11.1307 120.186C12.3015 120.186 13.3119 119.881 14.1459 119.287C14.9799 118.694 15.5893 117.924 15.9422 116.978H21.2188C20.5292 119.255 19.3263 121.084 17.5781 122.511C15.846 123.922 13.6326 124.628 10.9222 124.628C8.77301 124.644 6.86444 124.163 5.19645 123.233ZM16.295 110.675C16.1988 109.857 15.9261 109.199 15.4931 108.686C15.012 107.948 14.3704 107.387 13.5845 106.986C12.7987 106.585 11.9165 106.393 10.9382 106.393C9.97589 106.393 9.09378 106.585 8.32394 106.97C7.53805 107.355 6.91256 107.932 6.4314 108.686C5.96629 109.247 5.69364 109.905 5.59741 110.675H16.295Z" fill="#FAD12E"/>
<path d="M32.5893 124.645C30.9053 124.645 29.6222 124.26 28.7561 123.474C27.8901 122.704 27.457 121.469 27.457 119.785V94.4766H32.7978V118.197C32.7978 118.935 32.9422 119.448 33.2148 119.753C33.4875 120.058 33.9526 120.202 34.6262 120.202H36.0536V124.629H32.5893V124.645Z" fill="#FAD12E"/>
<path d="M50.6491 124.645H46.4149L38.2354 102.464H43.929L48.516 116.465L53.1832 102.464H58.8768L50.6491 124.645Z" fill="#FAD12E"/>
<path d="M62.8222 99.1756C62.1967 98.6143 61.876 97.8926 61.876 96.9623C61.876 96.0963 62.1967 95.3745 62.8222 94.7811C63.4477 94.2037 64.2336 93.915 65.1478 93.915C66.046 93.915 66.8158 94.2037 67.4573 94.7811C68.0989 95.3585 68.4197 96.0802 68.4197 96.9623C68.4197 97.8605 68.0989 98.5822 67.4734 99.1596C66.8479 99.7209 66.062 100.01 65.1478 100.01C64.2336 100.01 63.4638 99.737 62.8222 99.1756ZM67.8102 124.645H62.4694V102.464H67.8102V124.645Z" fill="#FAD12E"/>
<path d="M73.375 124.645V102.464H78.7158V105.11C79.5337 103.972 80.4479 103.17 81.4584 102.705C82.4688 102.224 83.6717 101.999 85.0349 101.999H85.6604V107.131H84.4415C82.7575 107.131 81.4423 107.58 80.4961 108.479C79.8866 109.088 79.4375 109.858 79.1488 110.788C78.8601 111.718 78.7158 112.921 78.7158 114.365V124.645H73.375Z" fill="#FAD12E"/>
<path d="M90.4564 122.928C89.1092 121.789 88.4355 120.186 88.4355 118.133C88.4355 115.919 89.2856 114.235 90.9696 113.081C92.1885 112.231 93.9046 111.605 96.15 111.188L102.758 109.969C102.71 108.606 102.357 107.563 101.683 106.842C101.026 106.136 100.031 105.767 98.7162 105.767C97.6897 105.767 96.7916 106.072 96.0057 106.681C95.2198 107.291 94.7386 108.109 94.5622 109.135H89.2695C89.6384 106.681 90.713 104.821 92.5093 103.522C94.3056 102.239 96.3906 101.581 98.7482 101.581C100.095 101.581 101.346 101.774 102.501 102.158C103.656 102.543 104.65 103.105 105.468 103.842C106.286 104.548 106.88 105.382 107.249 106.328C107.617 107.275 107.842 108.221 107.938 109.167C108.034 110.113 108.083 111.284 108.083 112.68V124.227H102.742V121.228C102.196 122.206 101.523 122.944 100.721 123.441C99.486 124.259 97.802 124.66 95.7009 124.66C93.5518 124.644 91.8036 124.067 90.4564 122.928ZM99.8709 119.817C100.978 119.255 101.747 118.534 102.164 117.603C102.581 116.673 102.822 115.422 102.87 113.85L97.5774 114.925C96.15 115.182 95.1236 115.615 94.4981 116.192C94.0169 116.673 93.7924 117.251 93.7924 117.924C93.7924 118.742 94.0811 119.368 94.6745 119.801C95.2679 120.234 96.0538 120.458 97.0321 120.458C98.0746 120.442 99.0209 120.234 99.8709 119.817Z" fill="#FAD12E"/>
<path d="M11.7247 135.856C11.4842 135.76 11.2757 135.632 11.1153 135.423C10.9549 135.231 10.8426 134.974 10.8105 134.669H11.4681C11.5323 134.942 11.6445 135.134 11.837 135.247C12.0295 135.359 12.238 135.423 12.4946 135.423C12.7352 135.423 12.9116 135.375 13.0559 135.279C13.2003 135.183 13.2644 135.038 13.2644 134.83C13.2644 134.685 13.2163 134.573 13.1361 134.493C13.0559 134.413 12.9437 134.349 12.8153 134.3C12.687 134.252 12.5106 134.204 12.27 134.156C11.9814 134.092 11.7568 134.028 11.5804 133.964C11.404 133.899 11.2436 133.787 11.1313 133.643C11.019 133.499 10.9389 133.306 10.9389 133.049C10.9389 132.809 11.003 132.616 11.1153 132.44C11.2275 132.264 11.3879 132.135 11.5964 132.055C11.8049 131.975 12.0295 131.927 12.2861 131.927C12.671 131.927 13.0078 132.023 13.2965 132.231C13.5852 132.44 13.7456 132.729 13.8097 133.13H13.1522C13.104 132.921 12.9918 132.761 12.8314 132.648C12.671 132.536 12.4785 132.488 12.254 132.488C12.0455 132.488 11.8691 132.536 11.7568 132.616C11.6285 132.713 11.5644 132.825 11.5644 132.985C11.5644 133.114 11.5964 133.21 11.6927 133.29C11.7729 133.37 11.8691 133.418 11.9974 133.466C12.1257 133.499 12.2861 133.547 12.4946 133.595C12.7993 133.659 13.0399 133.723 13.2163 133.803C13.4088 133.867 13.5531 133.98 13.6975 134.14C13.8258 134.3 13.8899 134.509 13.8899 134.782C13.8899 135.15 13.7616 135.439 13.505 135.648C13.2484 135.856 12.8955 135.968 12.4465 135.968C12.2219 135.984 11.9653 135.952 11.7247 135.856Z" fill="#FAD12E"/>
<path d="M18.6525 135.92H16.0703V132.007H18.6525V132.584H16.7118V133.675H18.444V134.252H16.7118V135.343H18.6525V135.92Z" fill="#FAD12E"/>
<path d="M23.7202 135.92H23.0145L22.373 134.316H21.4427V135.92H20.7852V132.007H22.405C22.79 132.007 23.0947 132.103 23.3032 132.296C23.5277 132.488 23.64 132.777 23.64 133.162C23.64 133.418 23.5919 133.643 23.4796 133.819C23.3673 133.996 23.207 134.14 22.9985 134.22L23.7202 135.92ZM21.4267 133.755H22.3088C22.5333 133.755 22.6937 133.707 22.822 133.611C22.9343 133.514 22.9985 133.37 22.9985 133.178C22.9985 132.985 22.9343 132.841 22.822 132.745C22.7098 132.648 22.5333 132.6 22.3088 132.6H21.4267V133.755Z" fill="#FAD12E"/>
<path d="M27.5858 135.92H26.8641L25.4688 132.007H26.1424L27.233 135.215L28.3075 132.007H28.9812L27.5858 135.92Z" fill="#FAD12E"/>
<path d="M31.5794 132.007H30.9219V135.92H31.5794V132.007Z" fill="#FAD12E"/>
<path d="M34.5469 135.711C34.2742 135.535 34.0657 135.278 33.9214 134.974C33.777 134.669 33.7129 134.332 33.7129 133.963C33.7129 133.594 33.777 133.258 33.9214 132.953C34.0657 132.648 34.2582 132.407 34.5469 132.215C34.8195 132.039 35.1724 131.942 35.5733 131.942C36.0385 131.942 36.4073 132.055 36.696 132.279C36.9847 132.504 37.1611 132.808 37.2093 133.177H36.5036C36.4555 132.969 36.3592 132.808 36.1988 132.696C36.0385 132.584 35.83 132.52 35.5733 132.52C35.2045 132.52 34.8997 132.648 34.7073 132.905C34.5148 133.161 34.4025 133.514 34.4025 133.947C34.4025 134.38 34.4988 134.733 34.7073 134.99C34.9158 135.262 35.2045 135.391 35.5733 135.391C35.83 135.391 36.0385 135.326 36.1988 135.198C36.3592 135.07 36.4715 134.893 36.5036 134.653H37.2093C37.1451 135.054 36.9687 135.375 36.696 135.615C36.4073 135.856 36.0385 135.968 35.5733 135.968C35.1724 135.984 34.8195 135.904 34.5469 135.711Z" fill="#FAD12E"/>
<path d="M41.8922 135.92H39.2939V132.007H41.8922V132.584H39.9515V133.675H41.6676V134.252H39.9515V135.343H41.8922V135.92Z" fill="#FAD12E"/>
<path d="M47.4745 135.872C47.2821 135.792 47.1217 135.679 47.0094 135.535C46.8972 135.391 46.833 135.198 46.833 134.99C46.833 134.733 46.9132 134.525 47.0575 134.348C47.2019 134.172 47.4264 133.995 47.7312 133.819C47.5708 133.642 47.4425 133.482 47.3783 133.354C47.3142 133.225 47.266 133.065 47.266 132.905C47.266 132.712 47.3142 132.536 47.4104 132.391C47.5066 132.247 47.6349 132.135 47.7953 132.055C47.9557 131.974 48.1482 131.942 48.3567 131.942C48.6614 131.942 48.902 132.023 49.0944 132.183C49.2869 132.343 49.3831 132.568 49.3831 132.841C49.3831 133.258 49.1265 133.61 48.5972 133.915L49.3029 134.781C49.3831 134.653 49.4312 134.525 49.4633 134.396C49.4954 134.268 49.5275 134.124 49.5275 133.979H50.1048C50.0567 134.476 49.9124 134.893 49.6558 135.246L50.2011 135.936H49.4473L49.2067 135.615C49.0944 135.743 48.934 135.84 48.7416 135.904C48.5491 135.968 48.3406 136 48.1321 136C47.8915 135.984 47.667 135.952 47.4745 135.872ZM48.5491 135.391C48.6774 135.343 48.8057 135.278 48.902 135.198L48.1 134.188C47.8915 134.316 47.7151 134.428 47.6189 134.541C47.5066 134.653 47.4585 134.781 47.4585 134.942C47.4585 135.102 47.5227 135.23 47.651 135.326C47.7793 135.423 47.9557 135.455 48.1482 135.455C48.2765 135.471 48.4048 135.439 48.5491 135.391ZM48.6453 133.209C48.7416 133.113 48.7897 132.985 48.7897 132.841C48.7897 132.728 48.7416 132.632 48.6614 132.552C48.5812 132.472 48.4689 132.44 48.3406 132.44C48.2123 132.44 48.1 132.488 48.0038 132.568C47.9076 132.648 47.8595 132.76 47.8595 132.905C47.8595 133.017 47.8915 133.113 47.9397 133.193C47.9878 133.29 48.084 133.402 48.1963 133.53C48.4048 133.418 48.5491 133.322 48.6453 133.209Z" fill="#FAD12E"/>
<path d="M55.9572 135.856C55.7166 135.76 55.5081 135.632 55.3477 135.423C55.1873 135.231 55.075 134.974 55.043 134.669H55.7005C55.7647 134.942 55.877 135.134 56.0694 135.247C56.2619 135.359 56.4704 135.423 56.727 135.423C56.9676 135.423 57.144 135.375 57.2883 135.279C57.4327 135.183 57.4968 135.038 57.4968 134.83C57.4968 134.685 57.4487 134.573 57.3685 134.493C57.2883 134.413 57.1761 134.349 57.0478 134.3C56.9195 134.252 56.743 134.204 56.5025 134.156C56.2138 134.092 55.9892 134.028 55.8128 133.964C55.6364 133.899 55.476 133.787 55.3637 133.643C55.2515 133.499 55.1713 133.306 55.1713 133.049C55.1713 132.809 55.2354 132.616 55.3477 132.44C55.46 132.264 55.6204 132.135 55.8288 132.055C56.0373 131.975 56.2619 131.927 56.5185 131.927C56.9034 131.927 57.2402 132.023 57.5289 132.231C57.8176 132.44 57.978 132.729 58.0421 133.13H57.3846C57.3365 132.921 57.2242 132.761 57.0638 132.648C56.9034 132.536 56.711 132.488 56.4864 132.488C56.2779 132.488 56.1015 132.536 55.9892 132.616C55.8609 132.713 55.7968 132.825 55.7968 132.985C55.7968 133.114 55.8289 133.21 55.9251 133.29C56.0053 133.37 56.1015 133.418 56.2298 133.466C56.3581 133.499 56.5185 133.547 56.727 133.595C57.0317 133.659 57.2723 133.723 57.4487 133.803C57.6412 133.867 57.7855 133.98 57.9299 134.14C58.0582 134.3 58.1223 134.509 58.1223 134.782C58.1223 135.15 57.994 135.439 57.7374 135.648C57.4808 135.856 57.128 135.968 56.6789 135.968C56.4543 135.984 56.1977 135.952 55.9572 135.856Z" fill="#FAD12E"/>
<path d="M60.9942 135.711C60.7215 135.535 60.497 135.278 60.3687 134.974C60.2243 134.669 60.1602 134.332 60.1602 133.947C60.1602 133.578 60.2243 133.241 60.3687 132.937C60.513 132.632 60.7215 132.391 60.9942 132.215C61.2668 132.039 61.6196 131.942 62.0366 131.942C62.4376 131.942 62.7905 132.039 63.0631 132.215C63.3518 132.391 63.5603 132.648 63.6886 132.953C63.833 133.258 63.8971 133.594 63.8971 133.963C63.8971 134.332 63.833 134.669 63.6886 134.99C63.5443 135.294 63.3358 135.535 63.0631 135.727C62.7744 135.904 62.4376 136 62.0366 136C61.6196 135.984 61.2668 135.904 60.9942 135.711ZM62.9188 135.006C63.1273 134.749 63.2395 134.396 63.2395 133.963C63.2395 133.53 63.1273 133.177 62.9188 132.921C62.7103 132.664 62.4055 132.52 62.0366 132.52C61.78 132.52 61.5715 132.584 61.3951 132.696C61.2187 132.824 61.0743 132.985 60.9781 133.209C60.8819 133.434 60.8338 133.675 60.8338 133.963C60.8338 134.252 60.8819 134.492 60.9781 134.717C61.0743 134.942 61.2026 135.102 61.3951 135.23C61.5715 135.359 61.7961 135.407 62.0366 135.407C62.4055 135.407 62.7103 135.278 62.9188 135.006Z" fill="#FAD12E"/>
<path d="M68.3719 135.92H66.0303V132.007H66.6878V135.343H68.3719V135.92Z" fill="#FAD12E"/>
<path d="M70.5851 135.599C70.3285 135.343 70.2002 134.99 70.2002 134.525V132.007H70.8578V134.525C70.8578 135.118 71.1465 135.407 71.7399 135.407C72.3333 135.407 72.622 135.118 72.622 134.525V132.007H73.2796V134.525C73.2796 134.99 73.1513 135.343 72.8946 135.599C72.638 135.856 72.2531 135.984 71.7399 135.984C71.2106 135.984 70.8257 135.856 70.5851 135.599Z" fill="#FAD12E"/>
<path d="M77.0966 135.92H76.4391V132.584H75.2041V132.007H78.3316V132.584H77.0966V135.92Z" fill="#FAD12E"/>
<path d="M80.9457 132.007H80.2881V135.92H80.9457V132.007Z" fill="#FAD12E"/>
<path d="M83.9131 135.711C83.6404 135.535 83.4159 135.278 83.2876 134.974C83.1433 134.669 83.0791 134.332 83.0791 133.947C83.0791 133.578 83.1433 133.241 83.2876 132.937C83.4319 132.632 83.6404 132.391 83.9131 132.215C84.1858 132.039 84.5386 131.942 84.9556 131.942C85.3566 131.942 85.7094 132.039 85.982 132.215C86.2707 132.391 86.4792 132.648 86.6076 132.953C86.7519 133.258 86.816 133.594 86.816 133.963C86.816 134.332 86.7519 134.669 86.6076 134.99C86.4632 135.294 86.2547 135.535 85.982 135.727C85.6934 135.904 85.3566 136 84.9556 136C84.5386 135.984 84.2018 135.904 83.9131 135.711ZM85.8377 135.006C86.0462 134.749 86.1585 134.396 86.1585 133.963C86.1585 133.53 86.0462 133.177 85.8377 132.921C85.6292 132.664 85.3245 132.52 84.9556 132.52C84.699 132.52 84.4905 132.584 84.3141 132.696C84.1376 132.824 83.9933 132.985 83.8971 133.209C83.8008 133.434 83.7527 133.675 83.7527 133.963C83.7527 134.252 83.8008 134.492 83.8971 134.717C83.9933 134.942 84.1216 135.102 84.3141 135.23C84.4905 135.359 84.715 135.407 84.9556 135.407C85.3405 135.407 85.6292 135.278 85.8377 135.006Z" fill="#FAD12E"/>
<path d="M89.6064 135.92H88.9648V132.007H89.7507L91.4027 135.022V132.007H92.0442V135.92H91.2583L89.6064 132.905V135.92Z" fill="#FAD12E"/>
<path d="M95.0597 135.856C94.8191 135.76 94.6106 135.632 94.4502 135.423C94.2899 135.215 94.1776 134.974 94.1455 134.669H94.8031C94.8672 134.942 94.9795 135.134 95.172 135.247C95.3644 135.359 95.5729 135.423 95.8295 135.423C96.0701 135.423 96.2465 135.375 96.3909 135.279C96.5352 135.183 96.5994 135.038 96.5994 134.83C96.5994 134.685 96.5513 134.573 96.4711 134.493C96.3909 134.413 96.2786 134.349 96.1503 134.3C96.022 134.252 95.8456 134.204 95.605 134.156C95.3163 134.092 95.0918 134.028 94.9153 133.964C94.7389 133.899 94.5785 133.787 94.4663 133.643C94.338 133.499 94.2738 133.306 94.2738 133.049C94.2738 132.809 94.338 132.616 94.4502 132.44C94.5625 132.264 94.7229 132.135 94.9314 132.055C95.1399 131.975 95.3644 131.927 95.621 131.927C96.006 131.927 96.3428 132.023 96.6315 132.231C96.9202 132.44 97.0805 132.729 97.1447 133.13H96.4871C96.439 132.921 96.3267 132.761 96.1663 132.648C96.006 132.536 95.8135 132.488 95.589 132.488C95.3805 132.488 95.204 132.536 95.0918 132.616C94.9635 132.713 94.8993 132.825 94.8993 132.985C94.8993 133.114 94.9314 133.21 95.0276 133.29C95.1078 133.37 95.204 133.418 95.3324 133.466C95.4607 133.499 95.621 133.547 95.8295 133.595C96.1343 133.659 96.3748 133.723 96.5513 133.803C96.7437 133.867 96.8881 133.98 97.0324 134.14C97.1607 134.3 97.2249 134.509 97.2249 134.782C97.2249 135.15 97.0966 135.439 96.84 135.648C96.5833 135.856 96.2305 135.968 95.7814 135.968C95.5569 135.984 95.3003 135.952 95.0597 135.856Z" fill="#FAD12E"/>
<path d="M46.8642 0.267012C46.2868 0.0103976 45.6613 -0.053756 45.084 0.0424744C44.1217 0.218897 43.2556 0.860433 42.8546 1.83877L8.42015 84.645L8.25977 85.3988L48.3077 4.30869C49.0454 2.80108 48.4039 0.972701 46.8642 0.267012ZM45.0679 6.07291L40.1602 16.8507C39.9677 17.2517 39.5186 17.4281 39.1177 17.2517C38.7167 17.0592 38.5563 16.5941 38.7327 16.1931L43.6405 5.41534C43.7528 5.17476 43.9773 5.01438 44.2179 4.96626C44.3783 4.93418 44.5387 4.95022 44.683 5.01438C45.084 5.20684 45.2604 5.67195 45.0679 6.07291Z" fill="#FAD12E"/>
<path d="M48.5156 70.9799C44.4418 68.6704 41.2983 65.4627 39.085 61.3569C36.8557 57.2671 35.749 52.616 35.749 47.4195C35.749 42.608 36.7274 38.0852 38.7001 33.8511C40.6728 29.633 43.6399 26.2007 47.6174 23.5704C51.595 20.9401 56.4546 19.625 62.2124 19.625C66.9598 19.625 71.3543 20.6033 75.3479 22.5761C79.3575 24.5488 82.5812 27.58 85.019 31.6859C87.4569 35.7917 88.6758 40.8759 88.6758 46.9384V49.6649H48.8845C49.0769 51.8622 49.7345 53.9151 50.8572 55.8557C52.1082 58.2936 53.7762 60.1861 55.8772 61.5333C57.9783 62.8806 60.368 63.5542 63.0624 63.5542C65.9333 63.5542 68.4193 62.8164 70.4722 61.3409C72.5411 59.8653 74.0006 57.9728 74.8827 55.6633H87.8418C86.1578 61.2286 83.1746 65.7514 78.9244 69.2318C74.6743 72.7121 69.2212 74.4442 62.5973 74.4442C57.2726 74.4442 52.5733 73.2895 48.5156 70.9799ZM75.7328 40.1862C75.4762 38.1814 74.8186 36.5615 73.7601 35.3105C72.5732 33.4982 71.0015 32.1029 69.0608 31.1406C67.1202 30.1783 64.955 29.6811 62.5813 29.6811C60.2076 29.6811 58.0585 30.1462 56.1499 31.0925C54.2413 32.0387 52.6856 33.4341 51.4987 35.3105C50.3761 36.6898 49.6864 38.3097 49.4298 40.1862H75.7328Z" fill="#FAD12E"/>
<path d="M25.3574 32.1839C28.8378 22.5449 36.6164 13.8841 46.4479 10.1151C47.9235 9.52169 49.6717 8.94431 51.2113 8.55939L52.0133 8.35089C52.4142 8.25466 53.2482 8.09428 53.6492 8.01409C54.1784 7.88578 55.5577 7.70936 56.1191 7.61313C56.5842 7.53293 57.3059 7.50086 57.7871 7.45274C63.3203 6.97159 68.9979 7.69332 74.2425 9.5217C88.0035 14.3172 98.236 26.6186 100.417 41.0371C103.561 61.2616 90.5375 80.8284 70.6499 85.688C65.7903 86.8909 60.69 87.1475 55.7181 86.49C52.9595 86.1211 50.233 85.4314 47.6187 84.5333C42.9676 82.753 38.7014 79.9463 35.0927 76.5141C32.7191 74.2366 30.618 71.6705 28.9179 68.8638C28.3406 67.9496 27.8273 66.9873 27.3301 66.0089C31.3397 72.4082 37.1136 77.5726 43.9299 80.7482C49.9443 83.5389 56.4719 85.0946 63.1118 84.6936C63.8817 84.6295 64.7157 84.5974 65.4695 84.4852C65.9346 84.421 66.5761 84.3568 67.0413 84.2767C68.1319 84.1002 69.4631 83.8115 70.5216 83.5549C70.7461 83.4908 71.4197 83.2983 71.6603 83.2342C88.4365 78.3906 99.7757 62.3201 98.7171 44.9024C98.252 36.4662 94.8358 28.2385 89.1743 21.9515C70.4254 1.16569 37.306 7.45274 25.3574 32.1839Z" fill="#FAD12E"/>
</svg>
